<svg width="90" height="90" viewBox="0 0 90 90" fill="none" xmlns="http://www.w3.org/2000/svg">
<path fill-rule="evenodd" clip-rule="evenodd" d="M45 86C67.6437 86 86 67.6436 86 45C86 22.3564 67.6437 4 45 4C22.3563 4 4 22.3564 4 45C4 67.6436 22.3563 86 45 86ZM45 90C69.8528 90 90 69.8528 90 45C90 20.1472 69.8528 0 45 0C20.1472 0 0 20.1472 0 45C0 69.8528 20.1472 90 45 90ZM44.822 82.1826L45.0415 82.1831C65.5266 82.1831 82.1331 65.5767 82.1331 45.0916C82.1331 24.6064 65.5266 8 45.0415 8L44.822 8.00073V24H58C59.1046 24 60 24.8955 60 26V34C60 35.1045 59.1046 36 58 36H44.822V40H51C52.1046 40 53 40.8955 53 42V49C53 50.1045 52.1046 51 51 51H44.822V55H58C59.1046 55 60 55.8955 60 57V65C60 66.1045 59.1046 67 58 67H44.822V82.1826ZM56 42C56 40.8955 56.8954 40 58 40H75C76.1046 40 77 40.8955 77 42V49C77 50.1045 76.1046 51 75 51H58C56.8954 51 56 50.1045 56 49V42ZM33.6101 23.9792C31.8945 19.8936 26.1055 19.8936 24.3899 23.9792L18.0559 39.0642C16.6722 42.3594 19.0922 46 22.6659 46H26V54.9995C24.7855 55.9116 24 57.3643 24 59V67C24 69.7615 26.2385 72 29 72C31.7615 72 34 69.7615 34 67V59C34 57.3643 33.2145 55.9116 32 54.9995V46H35.3341C38.9078 46 41.3278 42.3594 39.9441 39.0642L33.6101 23.9792Z" fill="white"/>
</svg>
