<svg width="90" height="90" viewBox="0 0 90 90" fill="none" xmlns="http://www.w3.org/2000/svg">
<path fill-rule="evenodd" clip-rule="evenodd" d="M45 86C67.6437 86 86 67.6437 86 45C86 22.3563 67.6437 4 45 4C22.3563 4 4 22.3563 4 45C4 67.6437 22.3563 86 45 86ZM45 90C69.8528 90 90 69.8528 90 45C90 20.1472 69.8528 0 45 0C20.1472 0 0 20.1472 0 45C0 69.8528 20.1472 90 45 90Z" fill="white"/>
<path fill-rule="evenodd" clip-rule="evenodd" d="M44.822 82.1826C44.8951 82.183 44.9683 82.1832 45.0415 82.1832C65.5266 82.1832 82.1331 65.5767 82.1331 45.0916C82.1331 24.6065 65.5266 8 45.0415 8C44.9683 8 44.8951 8.00021 44.822 8.00064V24H58C59.1046 24 60 24.8954 60 26V34C60 35.1046 59.1046 36 58 36H44.822V40H51C52.1046 40 53 40.8954 53 42V49C53 50.1046 52.1046 51 51 51H44.822V55H58C59.1046 55 60 55.8954 60 57V65C60 66.1046 59.1046 67 58 67H44.822V82.1826ZM56 42C56 40.8954 56.8954 40 58 40H75C76.1046 40 77 40.8954 77 42V49C77 50.1046 76.1046 51 75 51H58C56.8954 51 56 50.1046 56 49V42Z" fill="white"/>
<path d="M28.4114 18.7612L44.7636 2C44.7636 2 45 3.87967 45 4.70729V86.071C45 86.5841 44.5766 87 44.0544 87H40.7448C40.2226 87 39.7992 86.5841 39.7992 86.071V69.3497C39.7992 68.8367 39.3758 68.4208 38.8536 68.4208H16.9474C16.154 68.4208 15.7133 67.5188 16.2096 66.9107L34.7843 44.1522C35.2806 43.5441 34.84 42.6421 34.0466 42.6421H24.2284C23.4434 42.6421 23.0002 41.7568 23.4795 41.146L38.6253 21.8432C39.1045 21.2324 38.6614 20.3471 37.8764 20.3471H29.0801C28.2376 20.3471 27.8157 19.3464 28.4114 18.7612Z" fill="white"/>
</svg>
