<svg width="62" height="62" viewBox="0 0 62 62" fill="none" xmlns="http://www.w3.org/2000/svg">
<circle cx="31" cy="31" r="29" fill="#FF8706" stroke="#FF8706" stroke-width="4"/>
<path d="M9 32.1818L12.575 30L31 40.6364V45L9 32.1818Z" fill="white"/>
<path d="M14.225 28.6364L17.8 26.4061L31 34.2667V38.7273L14.225 28.6364Z" fill="white"/>
<path d="M31 18L26.05 21.1429L31 24V18Z" fill="white"/>
<path d="M18.9 25.7564L21.6677 24L31 29.2144V32.7273L24.4 28.9674L18.9 25.7564Z" fill="white"/>
<path d="M22.75 23.1068L24.8258 21.8182L31 25.241V27.8182L22.75 23.1068Z" fill="white"/>
<path d="M53 32.1818L49.425 30L31 40.6364V45L53 32.1818Z" fill="white"/>
<path d="M47.775 28.6364L44.2 26.4061L31 34.2667V38.7273L47.775 28.6364Z" fill="white"/>
<path d="M31 18L35.95 21.1429L31 24V18Z" fill="white"/>
<path d="M43.1 25.7564L40.3323 24L31 29.2144V32.7273L37.6 28.9674L43.1 25.7564Z" fill="white"/>
<path d="M39.25 23.1068L37.1742 21.8182L31 25.241V27.8182L39.25 23.1068Z" fill="white"/>
</svg>
