<svg width="67" height="67" viewBox="0 0 67 67" fill="none" xmlns="http://www.w3.org/2000/svg">
<path fill-rule="evenodd" clip-rule="evenodd" d="M33.5 64.0222C41.9317 64.0222 49.5649 60.6033 55.0889 55.0761C55.0862 48.4671 53.0465 37.1551 41.6437 32.564C41.0506 32.3252 39.1388 31.6309 35.9484 31.2667H30.3072C27.1168 31.6309 25.205 32.3252 24.6119 32.564C13.636 36.9833 11.3352 47.6295 11.1759 54.3146C16.7474 60.2876 24.6876 64.0222 33.5 64.0222ZM42.8342 30.0445C54.1153 34.5867 57.2464 44.7316 57.9126 51.8231C61.7488 46.7202 64.0222 40.3756 64.0222 33.5C64.0222 16.643 50.357 2.97778 33.5 2.97778C16.643 2.97778 2.97778 16.643 2.97778 33.5C2.97778 39.9787 4.9963 45.9859 8.43876 50.9271C9.27036 44.0014 12.5129 34.6696 22.9624 30.2343C21.2385 29.1039 20.1 27.1543 20.1 24.9389C20.1 21.4442 22.933 18.6111 26.4278 18.6111H26.8687L23.0778 11.1139L29.7464 7.9966L32.5438 9.64537L35.3412 7.9966L42.0099 11.1139L38.219 18.6111H39.0833C42.5781 18.6111 45.4111 21.4442 45.4111 24.9389C45.4111 27.0331 44.3938 28.8897 42.8264 30.0414L42.8342 30.0445ZM33.5 67C52.0015 67 67 52.0015 67 33.5C67 14.9985 52.0015 0 33.5 0C14.9985 0 0 14.9985 0 33.5C0 52.0015 14.9985 67 33.5 67ZM34.4939 28.2889H39.0833C40.9335 28.2889 42.4333 26.789 42.4333 24.9389C42.4333 23.0887 40.9335 21.5889 39.0833 21.5889H26.4278C24.5776 21.5889 23.0778 23.0887 23.0778 24.9389C23.0778 26.789 24.5776 28.2889 26.4278 28.2889H31.7617H34.4939ZM37.9666 12.5109L34.8821 18.6111H30.2055L27.121 12.5109L29.5861 11.3586L32.5323 13.0951L32.5438 13.0755L32.5554 13.0951L35.5015 11.3586L37.9666 12.5109ZM37.6346 39.3879C38.4433 39.8399 39.0808 40.4827 39.5299 41.2973C39.9754 42.1048 40.2009 43.0581 40.2 44.135C40.2 45.2021 39.9745 46.1528 39.5299 46.9594C39.0808 47.7749 38.4424 48.4158 37.6337 48.8643C36.8314 49.3092 35.8833 49.5348 34.8166 49.5348H31.2099V50.3351H34.0713C34.3195 50.3351 34.5196 50.5338 34.5196 50.7782V52.9446C34.5196 53.1898 34.3186 53.3877 34.0713 53.3877H31.2099V55.3902C31.2099 55.6355 31.0088 55.8333 30.7616 55.8333H28.4579C28.2098 55.8333 28.0097 55.6346 28.0097 55.3902V53.3877H26.5038C26.2557 53.3877 26.0556 53.1889 26.0556 52.9446V50.7782C26.0556 50.5329 26.2566 50.3351 26.5038 50.3351H28.0097V49.5348H26.5038C26.2557 49.5348 26.0556 49.3361 26.0556 49.0917V46.9253C26.0556 46.6801 26.2566 46.4822 26.5038 46.4822H28.0097V39.1542C28.0097 38.9089 28.2107 38.7111 28.4579 38.7111H34.8166C35.8833 38.7111 36.8323 38.9385 37.6346 39.3879ZM34.8963 46.4813C35.5193 46.4813 36.0028 46.279 36.3723 45.8619C36.7572 45.4277 36.9446 44.8628 36.9446 44.1324C36.9446 43.3885 36.7572 42.8155 36.3723 42.3814C36.0019 41.9642 35.5193 41.7619 34.8963 41.7619H31.2108V46.4813H34.8963Z" fill="#FF8E0A"/>
</svg>
